PathFileType	4	(X/Y/Z)	D:\TRACE\v60_Jaco2_6-2-23\BothDRS_Motion1_4-v60.trc
DataRate	CameraRate	NumFrames	NumMarkers	Units	OrigDataRate	OrigDataStartFrame	OrigNumFrames
100.00	100.00	      17	9	mm	100.00	873	      6979
Frame#	Time	front left toe			Front right toe			aft left toe			aft right toe			Arm			FL body			FR body			AL Body			AR Body			
		X1	Y1	Z1	X2	Y2	Z2	X3	Y3	Z3	X4	Y4	Z4	X5	Y5	Z5	X6	Y6	Z6	X7	Y7	Z7	X8	Y8	Z8	X9	Y9	Z9	

873	8.720	-238.30901	30.22127	-209.41039	163.67546	65.75606	-202.97879	-145.48065	24.35910	445.43103	167.05658	-0.42768	397.37808	-21.92067	1220.75586	-282.20114	-114.41917	593.68024	-339.00912	45.61707	594.25085	-346.27951	-71.65399	537.01245	604.30310	85.77861	532.37360	598.54944	
874	8.730	-238.08916	29.96425	-209.29091	165.84917	79.23560	-205.25372	-150.75502	39.29942	441.11526	167.44606	-0.33869	397.48026	-22.16714	1221.25732	-282.48257	-115.22917	593.79962	-339.83075	45.14498	594.77686	-346.84671	-72.63029	536.61908	603.67358	85.06136	532.08643	598.02112	
875	8.740	-237.97173	30.01358	-209.17578	167.83095	93.30977	-208.51349	-155.55135	50.89058	437.59415	167.80122	-0.63234	397.38116	-22.67945	1221.53796	-282.48529	-115.69431	594.20654	-340.12109	44.21004	595.08929	-347.24420	-73.15199	535.39886	603.44128	84.33853	531.34479	597.36450	
876	8.750	-237.67108	29.83597	-209.31563	169.19917	107.26381	-211.97043	-161.69443	64.45213	433.53076	168.69702	-0.44783	397.38147	-23.28781	1221.91248	-282.61090	-116.35574	594.70959	-340.48022	43.93334	595.74091	-347.90866	-73.59879	534.59235	602.78986	84.17410	530.34430	597.02240	
877	8.760	-237.31860	29.49310	-209.48599	169.05342	120.20273	-215.24759	-166.26550	76.12350	429.36020	169.14729	-0.44308	397.49310	-24.36295	1222.22534	-282.58664	-116.83631	595.05713	-340.78870	43.57103	595.99127	-347.99792	-74.06180	533.39551	602.44525	83.97649	529.79773	597.66803	
878	8.770	-237.06653	29.45869	-209.52940	168.02713	132.66049	-218.54099	-169.76523	86.58180	425.84149	169.55261	-0.60311	397.23904	-25.33612	1222.69897	-282.84366	-116.50226	595.12573	-340.54004	42.97276	596.63452	-348.09930	-73.82914	532.38507	602.03497	84.95064	528.41486	596.32062	
879	8.780	-236.53024	29.37943	-209.53815	166.54539	144.30435	-221.15404	-172.34152	97.23759	422.23077	169.91130	-0.74646	397.12363	-26.59469	1223.20056	-283.00674	-117.60366	595.67090	-340.86841	42.26694	597.02734	-347.96515	-74.43863	531.21643	602.08978	83.06699	527.75415	596.88031	
880	8.790	-235.88916	29.34052	-209.56287	164.92896	155.03067	-223.39413	-174.90701	107.78616	418.96371	170.22974	-0.87725	397.16946	-28.15079	1223.92810	-283.35123	-117.86985	595.83087	-340.88187	41.78478	597.48169	-348.15616	-74.61741	530.58765	601.94171	82.92234	526.89197	596.23267	
881	8.800	-235.67076	29.26271	-209.54320	163.27989	161.23656	-224.00990	-176.13737	114.91341	417.06494	171.34918	-0.65077	397.27908	-29.11665	1224.09509	-283.58673	-117.63159	595.85516	-340.44272	42.06411	598.01471	-347.94073	-74.67994	529.62451	602.44366	82.39850	526.41455	596.19543	
882	8.810	-235.40918	29.18574	-209.49513	161.94341	165.40549	-224.03232	-178.02831	118.13552	416.48367	172.00348	-0.62257	397.21835	-30.42401	1224.33582	-284.02838	-118.36125	595.84106	-340.39862	41.79755	598.25189	-347.65988	-75.13762	529.36975	602.49866	82.14696	526.14801	596.29218	
883	8.820	-234.76076	28.87839	-209.49071	161.03790	166.21341	-223.14021	-181.25356	119.60951	415.97266	172.33130	-0.52745	397.17688	-31.30753	1224.61646	-284.35150	-118.87582	595.72467	-339.83615	41.51199	598.32050	-347.21881	-75.11666	528.96594	602.87018	81.96842	525.83002	596.64960	
884	8.830	-234.14281	28.67926	-209.44019	160.63184	164.57452	-221.98126	-185.13472	117.51014	416.78806	172.67125	-0.51889	397.09888	-32.56600	1224.68420	-285.03320	-119.19329	595.78265	-339.17078	40.90198	598.47766	-346.60297	-75.13631	528.61090	603.45325	81.90431	525.77722	596.90625	
885	8.840	-233.49504	28.54692	-209.36555	160.29178	160.78183	-220.46625	-189.14680	114.91905	417.80176	172.85405	-0.49536	397.11292	-33.65912	1224.61072	-285.55374	-119.49599	595.74359	-338.50385	40.58849	598.52161	-346.01300	-75.04250	528.57019	603.92035	81.88331	525.88745	597.59430	
886	8.850	-233.01291	28.70812	-209.44534	159.08653	155.70448	-219.00443	-192.83572	110.69566	419.23840	173.86206	-0.14151	397.33670	-35.34987	1224.68591	-286.49545	-119.88422	595.68982	-337.69769	40.28334	598.68964	-345.37979	-74.78563	528.25977	605.14380	81.92440	525.98456	598.17700	
887	8.860	-232.90230	28.80694	-209.42894	157.06148	149.34543	-217.90553	-196.31122	105.81398	420.68475	174.57170	0.07482	397.39993	-36.85649	1224.55688	-287.26367	-120.20873	595.60645	-337.22864	39.64310	598.61188	-344.70361	-75.06869	528.05298	605.66510	81.59939	525.86090	598.70239	
888	8.870	-232.42000	28.61204	-209.39066	154.15852	141.95056	-216.79518	-199.57736	99.78969	422.12372	174.97325	0.06510	397.24826	-37.92271	1224.41431	-287.75061	-120.65826	595.30554	-336.29221	39.36176	598.70782	-344.19421	-75.08924	528.01514	606.80798	81.28725	525.86371	599.70496	
889	8.880	-231.78638	28.28646	-209.27647	151.11154	133.14331	-215.60699	-203.45796	92.50628	423.60181	175.15492	0.05771	397.26575	-39.18856	1224.39771	-288.11642	-121.08870	594.90936	-335.41461	39.27130	598.60657	-343.03171	-75.58559	528.23822	607.09265	81.12948	525.85449	600.46924	
